<svg version="1.2" xmlns="http://www.w3.org/2000/svg" viewBox="0 0 1717 512" width="1717" height="512">
	<style>
		.s0 { fill: #0b66fb } 
	</style>
	<path fill-rule="evenodd" class="s0" d="m165.43 0h181.14c91.36 0 165.43 74.07 165.43 165.43v181.14c0 91.36-74.07 165.43-165.43 165.43h-181.14c-91.36 0-165.43-74.07-165.43-165.43v-181.14c0-91.36 74.07-165.43 165.43-165.43zm218.57 117.06c0-16.7-15.33-32.06-32-32.06h-192c-17.33 0-32 15.36-32 32.06v277.88c0 17.36 14.67 32.06 32 32.06h192c16.67 0 32-14.7 32-32.06zm-202.67 96.19h21.34c5.33 0 10.66 5.34 10.66 10.68v21.38c0 6.01-5.33 10.69-10.66 10.69h-21.34c-6 0-10.66-4.68-10.66-10.69v-21.38c0-5.34 4.66-10.68 10.66-10.68zm0 64.12h21.34c5.33 0 10.66 5.34 10.66 10.69v21.37c0 6.01-5.33 10.69-10.66 10.69h-21.34c-6 0-10.66-4.68-10.66-10.69v-21.37c0-5.35 4.66-10.69 10.66-10.69zm85.34 106.88h-85.34c-6 0-10.66-4.68-10.66-10.69v-21.38c0-5.34 4.66-10.68 10.66-10.68h85.34c5.33 0 10.66 5.34 10.66 10.68v21.38c0 6.01-5.33 10.69-10.66 10.69zm0-64.13h-21.34c-6 0-10.66-4.68-10.66-10.69v-21.37c0-5.35 4.66-10.69 10.66-10.69h21.34c5.33 0 10.66 5.34 10.66 10.69v21.37c0 6.01-5.33 10.69-10.66 10.69zm0-64.12h-21.34c-6 0-10.66-4.68-10.66-10.69v-21.38c0-5.34 4.66-10.68 10.66-10.68h21.34c5.33 0 10.66 5.34 10.66 10.68v21.38c0 6.01-5.33 10.69-10.66 10.69zm64 128.25h-21.34c-6 0-10.66-4.68-10.66-10.69v-21.38c0-5.34 4.66-10.68 10.66-10.68h21.34c5.33 0 10.66 5.34 10.66 10.68v21.38c0 6.01-5.33 10.69-10.66 10.69zm0-64.13h-21.34c-6 0-10.66-4.68-10.66-10.69v-21.37c0-5.35 4.66-10.69 10.66-10.69h21.34c5.33 0 10.66 5.34 10.66 10.69v21.37c0 6.01-5.33 10.69-10.66 10.69zm0-64.12h-21.34c-6 0-10.66-4.68-10.66-10.69v-21.38c0-5.34 4.66-10.68 10.66-10.68h21.34c5.33 0 10.66 5.34 10.66 10.68v21.38c0 6.01-5.33 10.69-10.66 10.69zm0-64.13h-149.34c-6 0-10.66-4.68-10.66-10.69v-42.75c0-5.34 4.66-10.68 10.66-10.68h149.34c5.33 0 10.66 5.34 10.66 10.68v42.75c0 6.01-5.33 10.69-10.66 10.69z"/>
	<path class="s0" d="m1603.19 261.58h102.59v-33.33h-102.6c3.87 10.77 3.87 22.56 0.01 33.33z"/>
	<path class="s0" d="m693.2 45.37h-85.2v210.16h79.19c51.07 0 71.2-23.12 71.2-62.75 0-35.14-25.84-47.15-25.84-47.15 6.92-4.67 12.56-10.99 16.44-18.37 3.88-7.39 5.87-15.62 5.79-23.96 0-35.44-19.83-57.96-61.58-57.96zm3.3 33.3c15.92 0 23.71 10.21 23.71 25.23 0 17.11-11.13 26.12-27.35 26.12h-50.01v-51.3zm-53.66 84.38h50.05c23.44 0 30.05 13.8 30.05 29.73 0 19.81-7.21 29.42-34.55 29.42h-45.55zm267.8-117.67h-35.15v210.15h35.15zm140.31 0v210.15h135.97v-33.27h-100.83v-176.88zm251.17 0v210.15h135.96v-33.27h-100.87v-176.88z"/>
	<path class="s0" d="m1656.72 81.08l-2.78 3.64-98.95 128.66c-6.1 0.33-11.97 2.43-16.91 6.03-4.94 3.61-8.72 8.56-10.89 14.28-2.18 5.71-2.65 11.92-1.36 17.9 1.29 5.97 4.29 11.44 8.63 15.74 4.34 4.31 9.83 7.26 15.82 8.51 5.98 1.24 12.2 0.73 17.9-1.49 5.69-2.21 10.62-6.03 14.19-10.99 3.57-4.96 5.63-10.85 5.91-16.96 0.28-5.33-0.82-10.65-3.19-15.45l101.55-131.39c6.76-0.25 13.25-2.67 18.53-6.89 5.28-4.23 9.06-10.04 10.78-16.57 1.73-6.54 1.31-13.45-1.19-19.73-2.5-6.28-6.96-11.59-12.7-15.14-5.75-3.56-12.49-5.18-19.23-4.62-6.74 0.56-13.12 3.27-18.2 7.72-5.08 4.46-8.6 10.43-10.03 17.04-1.43 6.6-0.7 13.49 2.08 19.65"/>
	<path class="s0" d="m1639.06 51.37h-99.48v33.33h99.48c-3.86-10.77-3.86-22.55 0-33.33z"/>
	<path class="s0" d="m662.67 438.03q-18.76 0-31.03-12.39-12.16-12.39-12.16-30.44 0-18.05 12.16-30.44 12.27-12.39 31.03-12.39 11.33 0 20.77 5.42 9.56 5.43 14.87 14.64l-9.56 5.54q-3.54-6.84-10.62-10.85-6.96-4.13-15.46-4.13-14.28 0-23.36 9.2-8.97 9.2-8.97 23.01 0 13.69 8.97 22.89 9.08 9.21 23.36 9.21 8.5 0 15.46-4.02 7.08-4.13 10.62-10.85l9.56 5.43q-5.19 9.2-14.75 14.75-9.56 5.42-20.89 5.42zm141.66-1.53l-6.72-18.53h-37.17l-6.73 18.53h-11.68l30.8-82.6h12.39l30.8 82.6zm-40.12-28.79h29.61l-14.86-40.71zm112.64 18.41h35.63v10.38h-46.61v-82.6h10.98zm119.93 11.92q-18.76 0-31.03-12.39-12.15-12.39-12.15-30.45 0-18.05 12.15-30.44 12.27-12.39 31.03-12.39 11.33 0 20.77 5.43 9.56 5.43 14.87 14.63l-9.56 5.55q-3.54-6.85-10.62-10.86-6.96-4.13-15.46-4.13-14.27 0-23.36 9.2-8.97 9.21-8.97 23.01 0 13.69 8.97 22.9 9.09 9.2 23.36 9.2 8.5 0 15.46-4.01 7.08-4.13 10.62-10.86l9.56 5.43q-5.19 9.2-14.75 14.75-9.56 5.43-20.89 5.43zm140.46-7.91q-8.61 7.91-22.3 7.91-13.69 0-22.42-7.91-8.61-8.02-8.62-21.36v-54.87h10.98v54.4q0 8.73 5.19 13.93 5.19 5.07 14.87 5.07 9.68 0 14.87-5.07 5.19-5.2 5.19-13.93v-54.4h10.85v54.87q0 13.34-8.61 21.36zm76.49-4.01h35.63v10.38h-46.61v-82.6h10.98zm143.46 10.39l-6.72-18.53h-37.17l-6.73 18.53h-11.68l30.8-82.6h12.39l30.8 82.6zm-40.12-28.79h29.62l-14.87-40.71zm148.54-53.81v10.38h-24.42v72.22h-10.86v-72.22h-24.31v-10.38zm114.93 71.62q-12.38 12.51-30.32 12.51-17.94 0-30.33-12.51-12.39-12.5-12.39-30.32 0-17.94 12.39-30.33 12.39-12.51 30.33-12.51 17.94 0 30.32 12.51 12.51 12.39 12.51 30.33 0 17.82-12.51 30.32zm-53.1-7.43q9.21 9.2 22.78 9.2 13.57 0 22.65-9.2 9.21-9.32 9.21-22.89 0-13.69-9.21-22.89-9.08-9.33-22.65-9.33-13.57 0-22.78 9.33-9.08 9.2-9.08 22.89 0 13.57 9.08 22.89zm167.9 18.41l-18.53-31.63h-19.47v31.63h-10.97v-82.6h33.04q10.62 0 18.17 7.55 7.55 7.43 7.55 18.05 0 8.03-4.84 14.64-4.72 6.6-12.27 9.32l19.47 33.04zm-38-72.34v30.8h22.07q6.14 0 10.38-4.48 4.37-4.6 4.37-10.98 0-6.37-4.37-10.85-4.24-4.49-10.38-4.49z"/>
</svg>